<?xml version="1.0" encoding="UTF-8" standalone="no"?><!DOCTYPE svg PUBLIC "-//W3C//DTD SVG 1.1//EN" "http://www.w3.org/Graphics/SVG/1.1/DTD/svg11.dtd"><svg width="100%" height="100%" viewBox="0 0 495 549" version="1.1" xmlns="http://www.w3.org/2000/svg" xmlns:xlink="http://www.w3.org/1999/xlink" xml:space="preserve" xmlns:serif="http://www.serif.com/" style="fill-rule:evenodd;clip-rule:evenodd;stroke-linejoin:round;stroke-miterlimit:2;"><g><g><g><path d="M446.869,254.18c-6.979,-8.125 -13.711,-15.859 -20.313,-23.698c-2.409,-2.851 -4.44,-3.307 -8.007,-1.276c-13.946,7.956 -28.125,15.508 -42.305,23.06c-2.969,1.576 -4.232,3.412 -4.271,6.901c-0.169,13.672 -0.56,27.331 -1.224,40.977c-0.091,1.836 -1.823,4.518 -3.464,5.208c-29.44,12.37 -60.143,20.078 -91.77,24.193c-26.263,3.411 -52.565,4.31 -78.92,1.12c-24.127,-2.93 -47.421,-8.698 -68.606,-21.029c-37.227,-21.667 -52.93,-55.013 -51.511,-97.122c1.68,-49.31 20.599,-92.097 50.56,-130.495c12.5,-16.029 26.979,-30.065 43.268,-42.227c1.12,-0.846 2.331,-1.562 3.985,-2.057c-50.573,65.312 -64.922,139.674 -56.289,219.857c0.481,0.052 0.963,0.104 1.445,0.156c-0,-3.685 -0.13,-7.37 0.039,-11.042c0.182,-3.919 0.664,-7.825 0.977,-11.744c3.255,-40.443 10.677,-79.987 25.976,-117.748c13.867,-34.193 33.451,-64.375 63.685,-86.484c28.529,-20.86 60.729,-30.638 96.016,-30.729c32.187,-0.079 62.448,7.955 91.51,21.197c0.482,0.222 0.885,0.625 1.771,1.264c-8.346,-1.029 -16.133,-2.553 -23.971,-2.878c-77.019,-3.203 -132.305,31.224 -168.282,98.216c-16.093,29.961 -25.117,62.409 -28.997,95.99c-2.813,24.297 -3.294,48.854 -4.779,73.294c-0.156,2.513 -0.013,5.065 0.352,7.604c3.008,-34.388 9.036,-68.151 19.896,-100.924c13.632,-41.159 33.073,-78.959 65.364,-108.907c30.638,-28.411 67.175,-42.513 108.737,-44.101c21.823,-0.834 43.294,1.862 64.505,6.836c2.24,0.534 4.61,1.745 6.276,3.333c28.23,26.732 47.93,58.372 53.334,97.409c5.573,40.247 -15.677,88.073 -44.987,105.846" style="fill:#ff6700;fill-rule:nonzero;"/></g></g><path d="M77.313,389.364c3.984,1.549 7.956,3.06 11.901,4.648c22.174,8.959 44.01,18.933 66.627,26.602c24.154,8.203 49.141,9.127 73.92,1.471c3.515,-1.081 6.979,-2.825 10.052,-4.883c29.805,-19.921 63.62,-30.299 97.252,-41.106c0.326,-0.105 0.73,0.052 1.446,0.117l-0,4.987c-0,46.797 -0.052,93.594 0.104,140.39c0.013,4.011 -1.237,5.873 -4.922,7.292c-44.089,17.096 -89.349,24.753 -136.38,16.237c-50.026,-9.062 -88.125,-36.445 -116.784,-77.786c-0.794,-1.172 -1.445,-2.709 -1.484,-4.089c-0.795,-24.128 -1.485,-48.268 -2.188,-72.409c-0.013,-0.325 0.195,-0.677 0.456,-1.471" style="fill:#e29764;fill-rule:nonzero;"/><path d="M493.244,218.573c4.258,16.472 -0.69,30.287 -9.779,43.06c-12.916,18.151 -30.312,31.394 -48.685,43.464c-37.161,24.388 -77.539,42.383 -118.45,59.31c-27.539,11.393 -55.378,22.174 -82.422,34.661c-24.831,11.472 -49.818,12.24 -75.339,4.87c-47.409,-13.685 -91.784,-34.492 -134.244,-59.388c-6.641,-3.893 -12.683,-9.375 -17.8,-15.182c-8.763,-9.922 -8.568,-21.224 -0.208,-31.576c18.672,-23.125 37.539,-46.107 56.341,-69.127c0.182,-0.222 0.664,-0.183 0.846,-0.235c1.25,9.323 1.888,18.789 3.867,27.956c8.49,39.102 33.607,63.503 69.948,77.565c24.883,9.622 50.86,13.359 77.383,13.633c75.248,0.742 145.69,-17.122 210.534,-55.586c23.529,-13.945 44.453,-31.146 58.841,-55.013c3.425,-5.69 5.964,-11.901 9.167,-18.412" style="fill:#ff6700;fill-rule:nonzero;"/><path d="M458.377,315.891c3.88,19.87 4.205,39.479 -3.36,58.464c-9.01,22.617 -27.278,33.45 -50.299,36.901c-12.005,1.81 -20.938,-4.05 -25.99,-15.222c-4.648,-10.299 -5.677,-21.263 -5.182,-32.356c0.078,-1.628 2.539,-3.711 4.375,-4.623c18.568,-9.179 37.409,-17.851 55.794,-27.357c8.529,-4.414 16.263,-10.364 24.662,-15.807" style="fill:#ff6700;fill-rule:nonzero;"/></g></svg>