<?xml version="1.0" encoding="UTF-8" standalone="no"?><!DOCTYPE svg PUBLIC "-//W3C//DTD SVG 1.1//EN" "http://www.w3.org/Graphics/SVG/1.1/DTD/svg11.dtd"><svg width="100%" height="100%" viewBox="0 0 2151 549" version="1.1" xmlns="http://www.w3.org/2000/svg" xmlns:xlink="http://www.w3.org/1999/xlink" xml:space="preserve" xmlns:serif="http://www.serif.com/" style="fill-rule:evenodd;clip-rule:evenodd;stroke-linejoin:round;stroke-miterlimit:2;"><g id="Text"><g><path d="M656.217,491.676c-4.354,0 -8.169,-1.305 -11.481,-3.917c-3.277,-2.611 -6.135,-6.043 -8.538,-10.277c-2.421,-4.252 -4.455,-8.654 -6.102,-13.224c-1.647,-4.831 -3.21,-11.004 -4.673,-18.502c-1.479,-7.517 -2.857,-15.78 -4.151,-24.789c-1.294,-8.99 -2.421,-18.111 -3.345,-27.306c-0.941,-9.214 -1.681,-17.887 -2.219,-26.057c-0.521,-8.151 -0.79,-15.033 -0.79,-20.647c0,-13.84 1.177,-26.318 3.53,-37.416c2.353,-11.098 5.732,-20.89 10.152,-29.377c4.404,-8.486 9.732,-15.667 15.968,-21.542c8.589,-8.095 18.792,-13.877 30.625,-17.328c11.833,-3.451 24.793,-5.204 38.912,-5.204c8.707,0 17.497,0.783 26.389,2.35c8.875,1.567 17.027,3.824 24.44,6.771c7.412,2.928 13.362,6.435 17.833,10.482c4.455,4.029 6.707,8.617 6.707,13.709c-0,4.29 -1.009,7.592 -3.009,9.886c-2,2.275 -4.757,3.954 -8.286,4.98c-4.824,0.783 -11.312,0.895 -19.414,0.298c-8.119,-0.578 -17.128,-0.876 -27.011,-0.876c-10.472,-0 -19.128,1.343 -25.936,4.01c-6.841,2.686 -12.236,6.435 -16.237,11.265c-2.588,2.873 -4.656,6.342 -6.185,10.39c-1.53,4.028 -2.622,8.673 -3.261,13.895c-0.656,5.223 -0.975,11.042 -0.975,17.44c0,3.133 0.235,5.931 0.706,8.412c0.471,2.48 1.177,4.625 2.118,6.472c0.941,1.828 2.219,3.189 3.799,4.103c1.596,0.914 3.445,1.38 5.563,1.38c3.883,0 8.438,-0.13 13.665,-0.391c5.245,-0.28 10.573,-0.56 15.985,-0.895c5.396,-0.318 10.438,-0.485 15.077,-0.485c4.656,-0 8.438,0.261 11.397,0.783c4.336,0.914 7.647,2.35 9.883,4.309c2.219,1.958 3.345,4.7 3.345,8.225c-0,2.22 -0.353,4.383 -1.059,6.454c-0.706,2.107 -1.832,4.066 -3.345,5.875c-2.235,2.891 -6.135,4.999 -11.648,6.379c-5.53,1.361 -13.094,2.667 -22.692,3.917c-9.58,1.249 -21.666,3.096 -36.272,5.577c-4.236,0.522 -7.11,2.256 -8.64,5.185c-1.529,2.947 -2.286,6.826 -2.286,11.657c0,1.959 0.084,4.924 0.252,8.916c0.185,3.991 0.421,8.374 0.706,13.224c0.303,4.831 0.538,9.68 0.706,14.586c0.185,4.886 0.269,9.326 0.269,13.317c0,3.973 -0.168,7.013 -0.521,9.102c-1.765,5.614 -4.42,9.494 -7.95,11.658c-3.53,2.145 -7.53,3.226 -12.001,3.226" style="fill:#fff;fill-rule:nonzero;"/><path d="M891.123,442.915c10.354,-0 19.178,-1.791 26.473,-5.391c7.295,-3.581 13.229,-8.318 17.834,-14.194c4.589,-5.875 7.967,-12.31 10.136,-19.286c2.185,-6.994 3.277,-13.951 3.277,-20.871c0,-9.401 -1.681,-17.384 -5.042,-23.986c-3.345,-6.584 -7.799,-11.937 -13.329,-16.06c-5.53,-4.103 -11.682,-7.106 -18.439,-9.008c-6.757,-1.884 -13.666,-2.835 -20.725,-2.835c-9.295,-0 -18.069,2.182 -26.305,6.565c-8.236,4.365 -14.909,10.93 -20.036,19.678c-5.11,8.747 -7.681,19.771 -7.681,33.088c-0,10.837 2.101,20.181 6.269,28.015c4.169,7.834 10.27,13.84 18.271,18.018c8.001,4.178 17.766,6.267 29.297,6.267m2.303,53.27c-14.136,-0 -27.65,-1.735 -40.593,-5.186c-12.959,-3.469 -24.54,-8.915 -34.776,-16.357c-10.237,-7.442 -18.322,-17.179 -24.272,-29.191c-5.933,-12.011 -8.908,-26.634 -8.908,-43.869c-0,-18.913 2.891,-35.55 8.639,-49.837c5.782,-14.288 13.716,-26.262 23.835,-35.924c10.118,-9.68 21.851,-16.917 35.213,-21.748c13.346,-4.831 27.617,-7.255 42.795,-7.255c14.119,-0 27.734,1.958 40.861,5.875c13.111,3.917 24.826,10.016 35.113,18.316c10.303,8.3 18.456,18.969 24.456,32.025c5.984,13.056 8.993,28.724 8.993,47.003c-0,13.97 -2.656,27.306 -7.934,40.045c-5.295,12.74 -12.892,24.024 -22.775,33.872c-9.884,9.867 -21.616,17.701 -35.214,23.52c-13.581,5.801 -28.742,8.711 -45.433,8.711" style="fill:#fff;fill-rule:nonzero;"/><path d="M1075.55,491.285c-4.236,-0 -8.001,-0.765 -11.296,-2.257c-3.294,-1.492 -6.202,-3.637 -8.723,-6.454c-2.538,-2.816 -4.858,-6.099 -6.976,-9.904c-2.37,-4.943 -4.504,-10.594 -6.454,-16.936c-1.933,-6.323 -3.564,-13.019 -4.841,-20.069c-1.294,-7.051 -2.303,-14.138 -3.009,-21.245c-0.706,-7.106 -1.059,-13.802 -1.059,-20.069c0,-21.562 3.833,-39.803 11.481,-54.743c7.647,-14.959 18.556,-26.337 32.726,-34.17c14.186,-7.834 30.978,-11.751 50.391,-11.751c8.589,0 16.876,0.709 24.877,2.145c8.001,1.436 15.195,3.656 21.548,6.659c6.354,3.003 11.38,6.658 15.094,10.967c3.698,4.309 5.547,9.401 5.547,15.276c-0,5.092 -0.941,9.139 -2.824,12.142c-1.882,3.003 -4.353,5.129 -7.412,6.36c-3.059,1.25 -6.236,1.866 -9.531,1.866c-5.883,-0 -11.967,-0.97 -18.271,-2.929c-6.286,-1.958 -14.203,-2.947 -23.733,-2.947c-13.413,0 -23.565,4.533 -30.44,13.616c-6.892,9.065 -10.321,21.636 -10.321,37.696c0,5.744 0.236,11.396 0.706,16.935c0.454,5.559 1.076,10.874 1.849,15.966c0.757,5.092 1.53,9.849 2.286,14.306c0.773,4.44 1.395,8.412 1.849,11.938c0.471,3.525 0.706,6.584 0.706,9.214c0,9.773 -1.966,16.973 -5.9,21.524c-3.95,4.569 -10.034,6.864 -18.27,6.864" style="fill:#fff;fill-rule:nonzero;"/><path d="M1298.62,386.504c8.236,0 15.968,-0.932 23.212,-2.835c7.245,-1.884 13.178,-5.017 17.817,-9.4c4.656,-4.384 6.976,-10.352 6.976,-17.925c-0,-9.009 -2.992,-15.667 -8.993,-19.976c-6.017,-4.309 -14.186,-6.454 -24.54,-6.454c-6.236,0 -12.304,1.213 -18.17,3.619c-5.883,2.425 -11.194,5.745 -15.901,9.979c-4.689,4.252 -8.438,9.083 -11.194,14.511c-2.774,5.409 -4.152,11.191 -4.152,17.327c0,3.395 1.177,5.876 3.53,7.442c2.353,1.567 6.085,2.574 11.211,3.022c5.127,0.466 11.85,0.69 20.204,0.69m12.707,113.403c-20.12,0 -37.584,-3.413 -52.409,-10.183c-14.841,-6.79 -26.305,-17.216 -34.423,-31.242c-8.119,-14.045 -12.17,-31.951 -12.17,-53.755c0,-18.018 2.723,-33.778 8.203,-47.301c5.463,-13.523 12.959,-24.807 22.49,-33.872c9.547,-9.083 20.624,-15.928 33.28,-20.573c12.64,-4.644 26.087,-6.957 40.324,-6.957c9.648,0 18.943,1.082 27.885,3.227c8.942,2.163 16.909,5.521 23.918,10.091c6.993,4.569 12.523,10.445 16.59,17.626c4.051,7.18 6.085,15.872 6.085,26.056c0,9.774 -1.782,17.887 -5.379,24.285c-3.597,6.397 -8.471,11.489 -14.64,15.276c-6.185,3.786 -13.245,6.658 -21.195,8.617c-7.934,1.958 -16.204,3.525 -24.793,4.7c-4.824,1.175 -10.673,2.22 -17.565,3.134c-6.874,0.914 -13.614,1.622 -20.203,2.145c-6.589,0.522 -11.817,0.783 -15.699,0.783c-3.53,-0 -5.984,0.504 -7.329,1.473c-1.361,0.989 -2.034,2.836 -2.034,5.577c0,2.742 0.706,6.006 2.118,9.793c1.412,3.786 3.412,7.386 6.001,10.78c4.824,6.267 10.404,10.483 16.758,12.628c6.37,2.163 14.186,3.226 23.481,3.226c8.825,0 17.145,-1.268 24.978,-3.805c7.815,-2.555 15.178,-5.11 22.052,-7.647c6.892,-2.555 13.329,-3.823 19.33,-3.823c5.765,-0 10.32,1.212 13.682,3.618c3.345,2.425 5.026,7.088 5.026,14.008c-0,6.136 -2.202,11.788 -6.623,16.935c-4.404,5.167 -10.471,9.643 -18.17,13.43c-7.715,3.786 -16.674,6.696 -26.91,8.71c-10.253,2.015 -21.128,3.04 -32.659,3.04" style="fill:#fff;fill-rule:nonzero;"/><path d="M1495.77,492.458c-8.017,-0 -15.968,-0.373 -23.918,-1.082c-7.951,-0.709 -15.346,-1.791 -22.238,-3.227c-6.874,-1.436 -12.791,-3.189 -17.733,-5.297c-5.076,-2.35 -9.244,-4.98 -12.539,-7.908c-3.277,-2.947 -4.941,-7.218 -4.941,-12.833c-0,-6.155 1.63,-10.948 4.857,-14.399c3.244,-3.45 7.984,-5.185 14.22,-5.185c4.101,-0 8.841,0.671 14.203,2.052c5.345,1.361 11.38,2.741 18.086,4.103c6.707,1.38 13.884,2.07 21.532,2.07c6.942,0 13.447,-0.597 19.498,-1.772c6.067,-1.175 10.975,-3.264 14.741,-6.267c3.765,-3.003 5.647,-7.181 5.647,-12.534c0,-4.83 -1.227,-8.785 -3.714,-11.844c-2.454,-3.077 -6.858,-5.744 -13.145,-8.039c-6.303,-2.275 -15.262,-4.662 -26.91,-7.143c-13.413,-2.873 -24.826,-6.715 -34.239,-11.546c-9.413,-4.849 -16.59,-10.948 -21.531,-18.316c-4.942,-7.386 -7.413,-16.152 -7.413,-26.336c0,-9.158 2.336,-16.973 6.976,-23.52c4.639,-6.51 11.026,-11.9 19.144,-16.153c8.119,-4.234 17.33,-7.404 27.617,-9.493c10.286,-2.089 21.094,-3.134 32.39,-3.134c7.059,0 14.287,0.466 21.716,1.38c7.396,0.914 14.287,2.313 20.641,4.197c6.353,1.902 11.463,4.309 15.346,7.256c3.899,2.928 5.832,6.49 5.832,10.668c0,4.831 -1.025,8.729 -3.075,11.658c-2.068,2.928 -4.724,5.054 -7.951,6.36c-3.227,1.306 -6.69,1.958 -10.32,1.958c-5.53,0 -11.548,-0.652 -18.019,-1.958c-6.454,-1.306 -13.06,-1.958 -19.75,-1.958c-5.765,-0 -11.077,0.615 -15.901,1.865c-4.824,1.249 -8.656,3.208 -11.547,5.875c-2.891,2.667 -4.32,6.23 -4.32,10.669c0,6.398 3.379,11.359 10.136,14.884c6.773,3.525 17.027,6.789 30.793,9.792c12.942,2.742 23.918,6.454 32.911,11.173c9.026,4.7 15.867,10.725 20.573,18.111c4.69,7.386 7.06,16.544 7.06,27.511c-0,10.315 -2.236,19.118 -6.707,26.449c-4.471,7.311 -10.589,13.298 -18.355,17.999c-7.765,4.7 -16.741,8.206 -26.927,10.482c-10.169,2.275 -21.078,3.432 -32.726,3.432" style="fill:#fff;fill-rule:nonzero;"/><path d="M1694.84,489.917c-7.648,0 -15.077,-1.249 -22.322,-3.73c-7.244,-2.481 -13.329,-6.77 -18.27,-12.926c-4.942,-6.136 -7.766,-14.679 -8.472,-25.646c-0.252,-3.656 -0.47,-7.666 -0.706,-12.049c-0.252,-4.365 -0.437,-9.027 -0.622,-14.008c-0.185,-4.961 -0.353,-10.053 -0.521,-15.275c-0.185,-5.223 -0.302,-10.539 -0.369,-15.948c-0.051,-5.427 -0.152,-10.799 -0.253,-16.171c0,-5.745 -1.059,-9.531 -3.176,-11.359c-2.118,-1.828 -5.177,-2.928 -9.178,-3.32c-2.353,-0.261 -5.11,-0.503 -8.303,-0.69c-3.16,-0.205 -6.471,-0.429 -9.884,-0.69c-3.412,-0.261 -6.572,-0.522 -9.513,-0.783c-5.076,-0.653 -8.976,-2.742 -11.732,-6.268c-2.774,-3.525 -4.169,-8.467 -4.169,-14.884c0,-4.308 0.79,-7.666 2.387,-10.09c1.597,-2.406 3.832,-4.234 6.706,-5.484c2.875,-1.231 6.102,-2.182 9.632,-2.816c5.866,-0.672 10.841,-1.325 14.892,-1.959c4.068,-0.671 7.799,-1.25 11.211,-1.772c3.648,-0.522 6.354,-1.678 8.119,-3.432c1.765,-1.772 2.824,-4.868 3.176,-9.307c0.353,-2.872 0.639,-6.006 0.891,-9.401c0.236,-3.394 0.521,-6.77 0.874,-10.183c0.353,-3.395 0.774,-6.323 1.244,-8.804c1.647,-6.659 3.9,-11.564 6.791,-14.698c2.874,-3.133 7.446,-4.7 13.682,-4.7c5.059,-0 9.06,0.821 12.001,2.462c2.925,1.623 5.16,4.103 6.707,7.423c1.529,3.339 2.706,7.685 3.529,13.038c0.353,3.786 0.639,7.088 0.891,9.886c0.219,2.816 0.421,5.409 0.605,7.833c0.185,2.425 0.37,4.663 0.622,6.752c0.236,2.089 0.454,4.178 0.706,6.267c0.353,3.917 1.597,6.752 3.715,8.524c2.118,1.754 4.942,2.91 8.471,3.432c3.16,0.392 6.488,0.821 9.951,1.269c3.463,0.466 6.875,0.858 10.152,1.175c3.295,0.335 6.186,0.764 8.657,1.268c5.294,0.783 9.866,2.555 13.766,5.297c3.866,2.742 5.832,7.237 5.832,13.504c0,5.633 -1.596,10.128 -4.79,13.523c-3.16,3.394 -7.278,5.353 -12.337,5.875c-6.606,0.261 -12.775,0.392 -18.54,0.392c-5.749,-0 -10.304,0.13 -13.581,0.391c-2.589,0.261 -4.74,1.175 -6.455,2.742c-1.698,1.567 -2.672,5.223 -2.908,10.967c-0.117,4.178 -0.168,8.487 -0.168,12.926c0,4.439 0.051,8.878 0.168,13.318c0.118,4.439 0.269,8.785 0.454,13.019c0.168,4.252 0.403,8.262 0.706,12.049c0.286,3.786 0.622,7.311 0.958,10.575c0.706,6.659 2.236,11.266 4.606,13.803c2.336,2.555 5.748,3.823 10.219,3.823c4.707,0 8.438,-1.044 11.211,-3.133c2.757,-2.089 5.211,-4.178 7.329,-6.267c2.118,-2.089 4.471,-3.134 7.059,-3.134c3.631,0 6.236,1.045 7.749,3.134c1.53,2.089 2.303,5.148 2.303,9.195c-0,4.961 -1.53,9.531 -4.572,13.709c-3.076,4.197 -7.127,7.871 -12.186,11.079c-5.076,3.19 -10.623,5.708 -16.674,7.536c-6.068,1.828 -12.169,2.741 -18.271,2.741" style="fill:#fff;fill-rule:nonzero;"/><path d="M1855.8,386.504c8.237,0 15.969,-0.932 23.213,-2.835c7.244,-1.884 13.178,-5.017 17.817,-9.4c4.656,-4.384 6.975,-10.352 6.975,-17.925c0,-9.009 -2.992,-15.667 -9.009,-19.976c-5.984,-4.309 -14.169,-6.454 -24.523,-6.454c-6.236,0 -12.287,1.213 -18.187,3.619c-5.866,2.425 -11.178,5.745 -15.867,9.979c-4.707,4.252 -8.455,9.083 -11.212,14.511c-2.773,5.409 -4.151,11.191 -4.151,17.327c-0,3.395 1.176,5.876 3.529,7.442c2.354,1.567 6.085,2.574 11.212,3.022c5.126,0.466 11.85,0.69 20.203,0.69m12.708,113.403c-20.12,0 -37.584,-3.413 -52.409,-10.183c-14.825,-6.79 -26.305,-17.216 -34.424,-31.242c-8.118,-14.045 -12.186,-31.951 -12.186,-53.755c0,-18.018 2.74,-33.778 8.219,-47.301c5.48,-13.523 12.977,-24.807 22.49,-33.872c9.547,-9.083 20.624,-15.928 33.281,-20.573c12.64,-4.644 26.087,-6.957 40.323,-6.957c9.648,0 18.943,1.082 27.886,3.227c8.942,2.163 16.909,5.521 23.901,10.091c7.009,4.569 12.539,10.445 16.607,17.626c4.051,7.18 6.085,15.872 6.085,26.056c-0,9.774 -1.782,17.887 -5.379,24.285c-3.597,6.397 -8.472,11.489 -14.64,15.276c-6.203,3.786 -13.262,6.658 -21.179,8.617c-7.95,1.958 -16.22,3.525 -24.809,4.7c-4.824,1.175 -10.69,2.22 -17.565,3.134c-6.875,0.914 -13.615,1.622 -20.204,2.145c-6.589,0.522 -11.816,0.783 -15.699,0.783c-3.53,-0 -5.984,0.504 -7.328,1.473c-1.362,0.989 -2.034,2.836 -2.034,5.577c-0,2.742 0.706,6.006 2.118,9.793c1.412,3.786 3.412,7.386 6,10.78c4.824,6.267 10.405,10.483 16.758,12.628c6.354,2.163 14.187,3.226 23.482,3.226c8.824,0 17.144,-1.268 24.977,-3.805c7.816,-2.555 15.178,-5.11 22.07,-7.647c6.874,-2.555 13.312,-3.823 19.312,-3.823c5.766,-0 10.321,1.212 13.683,3.618c3.361,2.425 5.025,7.088 5.025,14.008c0,6.136 -2.202,11.788 -6.622,16.935c-4.404,5.167 -10.472,9.643 -18.17,13.43c-7.715,3.786 -16.674,6.696 -26.927,8.71c-10.22,2.015 -21.112,3.04 -32.642,3.04" style="fill:#fff;fill-rule:nonzero;"/><path d="M2021.87,491.285c-4.235,-0 -8.017,-0.765 -11.312,-2.257c-3.277,-1.492 -6.202,-3.637 -8.723,-6.454c-2.538,-2.816 -4.841,-6.099 -6.959,-9.904c-2.37,-4.943 -4.522,-10.594 -6.455,-16.936c-1.933,-6.323 -3.563,-13.019 -4.857,-20.069c-1.294,-7.051 -2.286,-14.138 -2.992,-21.245c-0.706,-7.106 -1.076,-13.802 -1.076,-20.069c0,-21.562 3.832,-39.803 11.48,-54.743c7.648,-14.959 18.574,-26.337 32.743,-34.17c14.17,-7.834 30.961,-11.751 50.375,-11.751c8.589,0 16.893,0.709 24.893,2.145c8.001,1.436 15.178,3.656 21.532,6.659c6.354,3.003 11.379,6.658 15.094,10.967c3.698,4.309 5.564,9.401 5.564,15.276c-0,5.092 -0.942,9.139 -2.824,12.142c-1.9,3.003 -4.354,5.129 -7.43,6.36c-3.042,1.25 -6.235,1.866 -9.513,1.866c-5.9,-0 -11.985,-0.97 -18.271,-2.929c-6.303,-1.958 -14.22,-2.947 -23.733,-2.947c-13.414,0 -23.566,4.533 -30.457,13.616c-6.875,9.065 -10.321,21.636 -10.321,37.696c0,5.744 0.236,11.396 0.706,16.935c0.471,5.559 1.093,10.874 1.849,15.966c0.773,5.092 1.53,9.849 2.303,14.306c0.756,4.44 1.378,8.412 1.849,11.938c0.47,3.525 0.706,6.584 0.706,9.214c-0,9.773 -1.967,16.973 -5.917,21.524c-3.933,4.569 -10.034,6.864 -18.254,6.864" style="fill:#fff;fill-rule:nonzero;"/></g></g><g><g><g><path d="M446.869,254.18c-6.979,-8.125 -13.711,-15.859 -20.313,-23.698c-2.409,-2.851 -4.44,-3.307 -8.007,-1.276c-13.946,7.956 -28.125,15.508 -42.305,23.06c-2.969,1.576 -4.232,3.412 -4.271,6.901c-0.169,13.672 -0.56,27.331 -1.224,40.977c-0.091,1.836 -1.823,4.518 -3.464,5.208c-29.44,12.37 -60.143,20.078 -91.77,24.193c-26.263,3.411 -52.565,4.31 -78.92,1.12c-24.127,-2.93 -47.421,-8.698 -68.606,-21.029c-37.227,-21.667 -52.93,-55.013 -51.511,-97.122c1.68,-49.31 20.599,-92.097 50.56,-130.495c12.5,-16.029 26.979,-30.065 43.268,-42.227c1.12,-0.846 2.331,-1.562 3.985,-2.057c-50.573,65.312 -64.922,139.674 -56.289,219.857c0.481,0.052 0.963,0.104 1.445,0.156c-0,-3.685 -0.13,-7.37 0.039,-11.042c0.182,-3.919 0.664,-7.825 0.977,-11.744c3.255,-40.443 10.677,-79.987 25.976,-117.748c13.867,-34.193 33.451,-64.375 63.685,-86.484c28.529,-20.86 60.729,-30.638 96.016,-30.729c32.187,-0.079 62.448,7.955 91.51,21.197c0.482,0.222 0.885,0.625 1.771,1.264c-8.346,-1.029 -16.133,-2.553 -23.971,-2.878c-77.019,-3.203 -132.305,31.224 -168.282,98.216c-16.093,29.961 -25.117,62.409 -28.997,95.99c-2.813,24.297 -3.294,48.854 -4.779,73.294c-0.156,2.513 -0.013,5.065 0.352,7.604c3.008,-34.388 9.036,-68.151 19.896,-100.924c13.632,-41.159 33.073,-78.959 65.364,-108.907c30.638,-28.411 67.175,-42.513 108.737,-44.101c21.823,-0.834 43.294,1.862 64.505,6.836c2.24,0.534 4.61,1.745 6.276,3.333c28.23,26.732 47.93,58.372 53.334,97.409c5.573,40.247 -15.677,88.073 -44.987,105.846" style="fill:#ff6700;fill-rule:nonzero;"/></g></g><path d="M77.313,389.364c3.984,1.549 7.956,3.06 11.901,4.648c22.174,8.959 44.01,18.933 66.627,26.602c24.154,8.203 49.141,9.127 73.92,1.471c3.515,-1.081 6.979,-2.825 10.052,-4.883c29.805,-19.921 63.62,-30.299 97.252,-41.106c0.326,-0.105 0.73,0.052 1.446,0.117l-0,4.987c-0,46.797 -0.052,93.594 0.104,140.39c0.013,4.011 -1.237,5.873 -4.922,7.292c-44.089,17.096 -89.349,24.753 -136.38,16.237c-50.026,-9.062 -88.125,-36.445 -116.784,-77.786c-0.794,-1.172 -1.445,-2.709 -1.484,-4.089c-0.795,-24.128 -1.485,-48.268 -2.188,-72.409c-0.013,-0.325 0.195,-0.677 0.456,-1.471" style="fill:#e29764;fill-rule:nonzero;"/><path d="M493.244,218.573c4.258,16.472 -0.69,30.287 -9.779,43.06c-12.916,18.151 -30.312,31.394 -48.685,43.464c-37.161,24.388 -77.539,42.383 -118.45,59.31c-27.539,11.393 -55.378,22.174 -82.422,34.661c-24.831,11.472 -49.818,12.24 -75.339,4.87c-47.409,-13.685 -91.784,-34.492 -134.244,-59.388c-6.641,-3.893 -12.683,-9.375 -17.8,-15.182c-8.763,-9.922 -8.568,-21.224 -0.208,-31.576c18.672,-23.125 37.539,-46.107 56.341,-69.127c0.182,-0.222 0.664,-0.183 0.846,-0.235c1.25,9.323 1.888,18.789 3.867,27.956c8.49,39.102 33.607,63.503 69.948,77.565c24.883,9.622 50.86,13.359 77.383,13.633c75.248,0.742 145.69,-17.122 210.534,-55.586c23.529,-13.945 44.453,-31.146 58.841,-55.013c3.425,-5.69 5.964,-11.901 9.167,-18.412" style="fill:#ff6700;fill-rule:nonzero;"/><path d="M458.377,315.891c3.88,19.87 4.205,39.479 -3.36,58.464c-9.01,22.617 -27.278,33.45 -50.299,36.901c-12.005,1.81 -20.938,-4.05 -25.99,-15.222c-4.648,-10.299 -5.677,-21.263 -5.182,-32.356c0.078,-1.628 2.539,-3.711 4.375,-4.623c18.568,-9.179 37.409,-17.851 55.794,-27.357c8.529,-4.414 16.263,-10.364 24.662,-15.807" style="fill:#ff6700;fill-rule:nonzero;"/></g><g id="Leafs"><g><path d="M1866.1,85.301c9.088,1.849 18.242,3.451 27.265,5.573c53.464,12.526 98.386,65.352 102.058,119.87c0.117,1.758 0.013,3.529 0.013,7.331c-38.242,-22.409 -70.365,-53.334 -114.414,-62.279c35.768,21.367 62.76,51.055 85.338,86.641c-18.672,6.146 -37.083,6.745 -55.456,2.383c-48.398,-11.511 -82.135,-42.214 -105.234,-84.401c-8.919,-16.277 -12.812,-35.287 -18.763,-53.138c-1.94,-5.808 0.326,-9.922 6.497,-11.537c13.36,-3.477 26.732,-6.966 40.092,-10.443l32.604,0Z" style="fill:#78962f;fill-rule:nonzero;"/><path d="M2021.83,240.45c25.183,-8.685 43.034,-25.99 57.5,-47.526c-23.646,13.802 -43.099,36.432 -73.828,35.872c-3.828,-51.992 80.248,-105.651 145.313,-91.64c-5.651,15.937 -10.443,31.979 -16.993,47.265c-8.697,20.274 -20.442,38.932 -37.643,53.281c-16.237,13.555 -35.403,17.683 -56.002,13.308c-6.42,-1.368 -12.318,-5.17 -18.451,-7.865c0.026,-0.898 0.065,-1.797 0.104,-2.695" style="fill:#78962f;fill-rule:nonzero;"/></g></g></svg>